# xmcd CD database file
#
# Track frame offsets:
#	150
#	5449
#	23062
#	46800
#	72525
#	91944
#	105675
#	121513
#	137476
#	155295
#
# Disc length: 2254 seconds
#
# Revision: 0
# Processed by: cddbd v1.5.1PL2 Copyright (c) Steve Scherf et al.
# Submitted via: CDex 1.51
#
DISCID=7008cc0a
DTITLE=Heidi McCurdy - Fickle Mind
DYEAR=2005
DGENRE=Rhythmic Soul
TTITLE0=Wonderland Jam
TTITLE1=Fickle Mind
TTITLE2=Round The Bend
TTITLE3=Planet Of You
TTITLE4=She Laughs Freely
TTITLE5=Play My Game
TTITLE6=Placebo
TTITLE7=Last Night
TTITLE8=Looking Forward
TTITLE9=Wonderland Jam (reprise)
EXTD=YEAR: 2005
EXTT0=
EXTT1=
EXTT2=
EXTT3=
EXTT4=
EXTT5=
EXTT6=
EXTT7=
EXTT8=
EXTT9=
PLAYORDER=
